<svg width="98" height="98" viewBox="0 0 98 98" fill="none" xmlns="http://www.w3.org/2000/svg">
<g clip-path="url(#clip0)">
<path d="M39.3369 38.729C39.3369 34.118 36.1999 34.118 36.1999 34.118H34.5389H23.2939V44.012H35.3999C37.4919 44.011 39.3369 43.342 39.3369 38.729Z" fill="#EFEFEF"/>
<path d="M36.2009 50.846H23.2939V62.696H35.6049C37.4569 62.643 40.8749 62.063 40.8749 56.936C40.8749 50.784 36.2009 50.846 36.2009 50.846Z" fill="#EFEFEF"/>
<path d="M69.243 44.011C62.394 44.011 61.439 50.846 61.439 50.846H76.004C76.005 50.846 76.092 44.011 69.243 44.011Z" fill="#EFEFEF"/>
<path d="M48.875 0C21.882 0 0 21.883 0 48.875C0 75.867 21.882 97.75 48.875 97.75C75.868 97.75 97.75 75.867 97.75 48.875C97.75 21.883 75.868 0 48.875 0ZM59.531 28.848H77.825V34.308H59.531V28.848ZM50.285 57.486C50.285 71.019 36.201 70.574 36.201 70.574H23.294H22.915H13.128V26.236H22.915H23.294H36.2C43.212 26.236 48.747 30.107 48.747 38.041C48.747 45.976 41.981 46.479 41.981 46.479C50.9 46.479 50.285 57.486 50.285 57.486ZM69.33 64.479C76.7 64.479 76.439 59.709 76.439 59.709H84.242C84.242 72.368 69.07 71.501 69.07 71.501C50.863 71.501 52.034 54.551 52.034 54.551C52.034 54.551 52.02 37.517 69.068 37.517C87.015 37.517 84.502 56.762 84.502 56.762H61.527C61.527 65.001 69.33 64.479 69.33 64.479Z" fill="#EFEFEF"/>
</g>
<defs>
<clipPath id="clip0">
<rect width="97.75" height="97.75" fill="white"/>
</clipPath>
</defs>
</svg>
