<svg width="19" height="13" viewBox="0 0 19 13" fill="none" xmlns="http://www.w3.org/2000/svg">
<path d="M1.05556 7.44442H13.7222C14.3052 7.44442 14.7778 6.97189 14.7778 6.38887C14.7778 5.80585 14.3052 5.33331 13.7222 5.33331H1.05556C0.472537 5.33331 0 5.80585 0 6.38887C0 6.97189 0.472537 7.44442 1.05556 7.44442Z" fill="white"/>
<path d="M1.05556 12.7778H17.9444C18.5275 12.7778 19 12.3053 19 11.7222C19 11.1392 18.5275 10.6667 17.9444 10.6667H1.05556C0.472537 10.6667 0 11.1392 0 11.7222C0 12.3053 0.472537 12.7778 1.05556 12.7778Z" fill="white"/>
<path d="M17.9444 0H1.05556C0.472537 0 0 0.472537 0 1.05556C0 1.63857 0.472537 2.11111 1.05556 2.11111H17.9444C18.5275 2.11111 19 1.63857 19 1.05556C19 0.472537 18.5275 0 17.9444 0Z" fill="white"/>
</svg>
